<?xml version="1.0" encoding="UTF-8"?>
<svg id="Layer_2" data-name="Layer 2" xmlns="http://www.w3.org/2000/svg" viewBox="0 0 381.82 323.09">
  <g id="Layer_1-2" data-name="Layer 1">
    <g>
      <path d="M323.72,51.68h-44.83L260.51,0,123.74.03l-18.41,51.65h-13.09c-5.97-.09-11.79-.13-17.4,0h-16.74C26.01,51.68,0,77.7,0,109.79v155.21c0,28.45,20.45,52.12,47.44,57.12,1.27.35,2.57.67,3.91.98h281.52c13.61-1.84,25.95-9.43,34.69-19.98,8.88-10.2,14.26-23.53,14.26-38.12V109.79c0-32.09-26.01-58.1-58.1-58.1ZM261.43,239.85c-36.57,50.04-113.83,44.89-144.75-8.33-30.24-52.05,2.37-122.8,62.4-130.07,76.89-9.32,128.8,74.82,82.35,138.4Z"/>
      <path d="M186.32,126.73c-89.47,8.07-59.93,151.48,28.67,117.22,64.06-24.76,40.73-123.49-28.67-117.22Z"/>
    </g>
  </g>
</svg>